<svg width="1136" height="112" viewBox="0 0 1136 112" fill="none" xmlns="http://www.w3.org/2000/svg">
<path d="M120 48V87.04H49.44V112H0V0H143.84V39.04H49.44V48H120Z" fill="white"/>
<path d="M155.781 112V0H282.501L303.301 19.2V77.44L292.901 87.04H205.221V112H155.781ZM205.221 48H253.861V39.04H205.221V48Z" fill="white"/>
<path d="M315.275 0H425.515V36.8H395.115V75.2H425.515V112H315.275V75.2H345.675V36.8H315.275V0Z" fill="white"/>
<path d="M639.812 54.08V102.4L629.413 112H487.812V0H608.612L629.413 19.2V44.48L639.812 54.08ZM538.533 72.96H590.372V63.84H538.533V72.96ZM538.533 47.84H579.973V39.04H538.533V47.84Z" fill="white"/>
<path d="M760.299 0L805.739 112H756.299L752.619 101.92H701.739L698.059 112H648.619L694.059 0H760.299ZM739.179 63.52L730.379 39.04H723.979L715.179 63.52H739.179Z" fill="white"/>
<path d="M863.934 0L922.494 54.56V0H971.934V112H922.494L863.934 57.44V112H814.494V0H863.934Z" fill="white"/>
<path d="M1068.97 87.04H1035.85V112H986.406V0H1035.85V48H1045.77L1075.21 0H1124.01L1094.57 48H1106.41L1135.21 112H1080.17L1068.97 87.04Z" fill="white"/>
</svg>
